# xmcd
#
# Track frame offsets: 
#        150
#        25020
#        64758
#        70541
#        84622
#        95355
#        137051
#        186747
#        196775
#        225258
#        266219
#
# Disc length: 4225 seconds
#
# Revision: 0
# Processed by: cddbd v1.5.2PL0 Copyright (c) Steve Scherf et al.
# Submitted via: ExactAudioCopyFreeDBPlugin 1.0
#
DISCID=91107f0b
DTITLE=Flasket Brinner and Horselmat - Proggladan-Box B [CD 3- Tonkraft 
DTITLE=1971, 1973 and 1975)
DYEAR=2013
DGENRE=Swedish Progg
TTITLE0=Fläsket Brinner - Bosses Svit
TTITLE1=Fläsket Brinner - Gånglåt
TTITLE2=Fläsket Brinner - bandsnack med C. Eklund
TTITLE3=Fläsket Brinner - Barbarella
TTITLE4=Fläsket Brinner - snack nr 2 med C. Eklund
TTITLE5=Fläsket Brinner - Grasse
TTITLE6=Hörselmat - No Registration
TTITLE7=Hörselmat - Surtos Pelea
TTITLE8=Hörselmat - Bulldog
TTITLE9=Hörselmat - Underhuggaren
TTITLE10=Hörselmat - Jordbruksmaskinerna
EXTD=
EXTT0=
EXTT1=
EXTT2=
EXTT3=
EXTT4=
EXTT5=
EXTT6=
EXTT7=
EXTT8=
EXTT9=
EXTT10=
PLAYORDER=
